<?xml version="1.0" standalone="no"?>
<!DOCTYPE svg PUBLIC "-//W3C//DTD SVG 20010904//EN"
 "http://www.w3.org/TR/2001/REC-SVG-20010904/DTD/svg10.dtd">
<svg version="1.0" xmlns="http://www.w3.org/2000/svg"
 width="600.000000pt" height="600.000000pt" viewBox="0 0 600.000000 600.000000"
 preserveAspectRatio="xMidYMid meet">
<metadata>
Created by potrace 1.14, written by Peter Selinger 2001-2017
</metadata>
<g transform="translate(0.000000,600.000000) scale(0.100000,-0.100000)"
fill="#000000" stroke="none">
<path d="M2089 5958 c-1 -7 -1 -73 1 -145 l2 -133 -29 -1 c-15 0 -80 -1 -143
-2 l-115 -2 -5 -150 -5 -150 -297 -3 -298 -2 0 -1049 0 -1048 93 -7 c50 -3
244 -4 430 0 258 4 341 3 352 -6 12 -10 15 -41 15 -146 l0 -134 -145 0 -145 0
0 -155 0 -155 -155 0 -155 0 2 -1045 c2 -690 0 -1046 -7 -1049 -5 -3 670 -5
1500 -5 l1510 -1 -3 1050 -2 1050 -145 0 -145 0 0 155 0 156 -97 -1 c-54 -1
-124 -1 -155 -1 l-58 1 0 139 c0 135 1 139 23 145 12 3 149 6 304 6 l283 0 2
298 3 297 148 3 147 3 -2 907 -3 907 -100 0 c-55 1 -116 -2 -136 -5 -65 -12
-73 3 -66 127 3 59 3 120 0 136 l-5 27 -149 0 -148 0 0 -137 c-2 -267 -7 -432
-14 -440 -4 -4 -64 -8 -133 -9 -68 -1 -130 -4 -137 -7 -13 -5 -15 33 -17 269
l-1 41 -39 -7 c-21 -4 -44 -4 -50 0 -6 4 -37 5 -68 3 -31 -2 -77 -5 -102 -6
-25 -2 -48 2 -52 8 -5 6 -8 6 -8 0 0 -6 -34 -9 -87 -8 -108 4 -97 4 -161 1
-30 -2 -56 0 -58 3 -2 3 -45 4 -96 3 -51 -2 -178 -5 -283 -6 l-190 -3 -2 -135
c-2 -74 -5 -140 -7 -147 -5 -13 -263 -13 -285 1 -11 7 -13 57 -11 270 2 143 2
271 2 284 -2 22 -4 22 -152 22 -113 0 -150 -3 -151 -12z"/>
</g>
</svg>
